<?xml version="1.0" standalone="no"?>
<!DOCTYPE svg PUBLIC "-//W3C//DTD SVG 20010904//EN"
 "http://www.w3.org/TR/2001/REC-SVG-20010904/DTD/svg10.dtd">
<svg version="1.0" xmlns="http://www.w3.org/2000/svg"
 width="882.000000pt" height="882.000000pt" viewBox="0 0 882.000000 882.000000"
 preserveAspectRatio="xMidYMid meet">

<g transform="translate(0.000000,882.000000) scale(0.100000,-0.100000)"
fill="#000000" stroke="none">
<path d="M3375 8590 c-3 -5 3 -31 14 -57 11 -26 34 -85 51 -130 37 -96 36 -99
-43 -140 -143 -72 -388 -239 -552 -376 -97 -82 -324 -315 -411 -424 -356 -443
-588 -933 -728 -1533 -58 -249 -86 -515 -86 -820 0 -236 15 -443 45 -610 25
-136 74 -335 95 -385 5 -11 11 -33 15 -49 4 -21 9 -26 17 -18 9 9 8 19 -1 39
-7 16 -17 48 -21 73 -5 25 -16 81 -24 125 -55 282 -73 554 -56 840 6 110 13
202 15 205 2 3 8 46 14 95 23 189 83 448 154 666 35 104 46 133 117 304 4 11
31 70 60 130 217 457 549 877 925 1169 170 133 529 346 582 346 19 0 27 -15
68 -120 66 -169 79 -198 90 -192 11 7 106 113 170 191 58 71 389 456 433 504
25 27 41 52 36 57 -9 8 -166 31 -344 50 -47 5 -137 16 -200 25 -149 20 -375
45 -405 45 -13 0 -27 -4 -30 -10z"/>
<path d="M4000 5581 c-85 -19 -172 -88 -209 -167 -30 -63 -29 -196 0 -259 26
-56 107 -128 160 -144 135 -41 275 -7 352 83 49 58 61 98 61 196 0 83 -3 101
-26 146 -31 59 -74 99 -136 125 -49 21 -151 31 -202 20z m114 -45 c74 -31 116
-124 116 -255 0 -108 -19 -170 -66 -211 -69 -60 -177 -32 -223 58 -29 59 -44
139 -38 206 11 120 42 176 112 201 51 18 58 18 99 1z"/>
<path d="M3136 5573 c-13 -13 -5 -23 28 -37 32 -13 35 -18 42 -73 8 -64 -1
-358 -12 -386 -3 -10 -20 -25 -36 -33 -52 -27 -29 -38 78 -38 82 0 99 3 102
16 2 10 -7 17 -27 21 -16 4 -34 15 -40 25 -11 21 -17 349 -6 360 3 4 16 -5 28
-19 36 -42 242 -300 287 -357 31 -40 47 -52 63 -50 22 3 22 6 27 248 3 135 9
252 13 261 5 9 19 21 33 27 13 7 24 18 24 25 0 11 -22 14 -100 15 -81 0 -100
-2 -100 -14 0 -8 10 -18 23 -23 46 -18 52 -36 55 -183 3 -118 2 -139 -11 -136
-14 3 -172 189 -255 299 l-43 57 -83 1 c-46 0 -86 -3 -90 -6z"/>
<path d="M4414 5569 c-7 -13 4 -29 21 -29 8 0 21 -10 29 -22 13 -18 16 -54 16
-189 0 -92 3 -181 6 -198 4 -17 23 -49 43 -71 89 -99 303 -86 370 23 25 41 41
163 41 314 l0 112 35 27 c19 14 33 30 30 34 -3 4 -50 8 -105 8 -81 1 -100 -2
-100 -13 0 -8 16 -21 35 -29 22 -9 37 -24 41 -40 3 -13 4 -98 2 -188 -3 -149
-5 -166 -26 -199 -39 -63 -109 -84 -175 -53 -66 31 -72 55 -72 274 l0 195 28
13 c15 7 27 19 27 26 0 11 -27 14 -120 14 -66 0 -123 -4 -126 -9z"/>
<path d="M5091 5572 c-62 -8 -76 -25 -31 -40 l30 -11 0 -231 0 -232 -30 -11
c-18 -7 -29 -18 -28 -26 2 -12 26 -15 122 -15 83 0 121 4 124 12 2 7 -8 16
-22 21 -37 15 -47 43 -44 129 l3 77 29 0 c27 0 34 -8 71 -80 50 -97 91 -141
146 -155 57 -16 113 -10 117 13 2 9 -2 17 -8 17 -29 0 -72 47 -119 128 -28 48
-51 93 -51 101 0 7 18 30 41 50 34 30 42 44 46 82 8 70 -16 112 -83 145 -45
22 -69 27 -156 29 -57 2 -127 0 -157 -3z m234 -73 c27 -26 30 -36 30 -88 0
-48 -4 -64 -23 -84 -26 -27 -68 -38 -101 -25 -20 7 -21 15 -21 112 0 90 3 106
18 115 25 14 63 3 97 -30z"/>
<path d="M2160 4788 c0 -10 5 -18 10 -18 6 0 19 -9 30 -20 19 -19 20 -33 20
-228 0 -225 -6 -252 -54 -252 -27 0 -36 -8 -30 -23 3 -9 69 -13 224 -14 217
-2 220 -2 234 20 24 38 39 108 26 121 -9 8 -16 5 -28 -13 -51 -72 -66 -81
-141 -81 -101 0 -111 12 -111 129 0 98 2 101 66 101 48 0 70 -14 83 -51 18
-52 31 -23 31 71 0 97 -12 121 -35 67 -19 -46 -57 -58 -123 -41 -22 6 -23 10
-20 103 l3 96 69 3 c79 3 111 -12 128 -59 7 -20 16 -29 27 -27 13 3 15 14 13
58 -2 30 -8 59 -13 64 -4 5 -98 10 -209 10 -184 1 -200 0 -200 -16z"/>
<path d="M2644 4801 c-10 -10 -2 -21 24 -33 l27 -13 3 -229 c2 -237 0 -256
-39 -256 -11 0 -19 -4 -19 -10 0 -5 -1 -13 -2 -17 -2 -4 94 -8 213 -10 244 -3
232 -6 253 74 22 81 -3 100 -44 34 -30 -50 -55 -61 -135 -61 -96 0 -95 -2 -95
257 l0 212 30 16 c59 31 38 40 -91 40 -66 0 -123 -2 -125 -4z"/>
<path d="M3303 4797 c-4 -6 2 -16 12 -21 58 -34 57 -30 50 -249 -4 -111 -11
-212 -16 -224 -5 -12 -20 -25 -34 -29 -15 -4 -25 -13 -25 -24 0 -15 11 -17 95
-18 87 0 95 2 95 19 0 12 -7 19 -19 19 -11 0 -27 7 -36 16 -14 15 -16 39 -13
176 1 88 6 162 9 164 11 6 24 -16 69 -116 23 -52 48 -108 55 -125 8 -16 24
-55 35 -85 12 -30 26 -60 32 -67 14 -18 35 -5 49 30 58 147 158 357 170 357 5
0 9 -72 9 -166 l0 -165 -36 -15 c-74 -31 -38 -39 179 -40 187 -2 207 0 207 15
0 9 -13 22 -29 28 l-29 11 19 57 c27 82 31 85 109 85 76 0 86 -7 102 -67 22
-86 22 -84 -1 -90 -12 -3 -21 -13 -21 -24 0 -18 7 -19 78 -17 42 1 97 2 122 1
148 -5 214 13 140 39 -29 9 -31 14 -26 40 3 16 15 50 25 74 l20 44 68 0 c37 0
73 -4 80 -8 6 -4 20 -34 31 -67 21 -61 17 -85 -14 -85 -8 0 -14 -8 -14 -19 0
-18 11 -19 240 -19 228 1 240 2 240 19 0 12 -7 19 -18 19 -34 0 -42 21 -42
112 0 73 3 90 16 95 27 10 47 -10 87 -88 81 -155 85 -157 425 -157 l264 0 19
42 c33 72 19 134 -18 80 -45 -65 -61 -74 -138 -74 -98 0 -105 9 -105 127 0
101 2 103 68 103 46 0 55 -6 76 -49 11 -21 21 -30 27 -24 13 13 7 182 -6 186
-5 1 -16 -12 -24 -30 -14 -33 -35 -43 -86 -43 -52 0 -56 8 -53 111 l3 94 65 3
c76 4 108 -10 127 -55 21 -51 43 -43 42 15 -1 90 12 85 -219 85 -212 0 -242
-6 -181 -38 l31 -16 0 -227 c0 -164 -3 -231 -12 -240 -7 -7 -27 -12 -45 -12
-43 0 -88 47 -136 142 -44 86 -45 102 -11 124 53 35 72 121 40 182 -36 70
-143 98 -321 85 -115 -8 -137 -20 -85 -46 l25 -13 3 -221 c2 -191 0 -223 -14
-237 -32 -32 -97 -14 -116 32 -12 31 -168 483 -168 489 0 11 -30 -2 -57 -25
-24 -20 -41 -53 -69 -127 -32 -88 -52 -140 -122 -323 -27 -70 -71 -79 -96 -18
-7 17 -46 128 -86 246 -80 238 -85 250 -103 250 -19 0 -74 -61 -81 -90 -4 -14
-18 -52 -31 -85 -13 -33 -46 -120 -74 -194 -27 -73 -58 -142 -67 -152 -21 -24
-77 -25 -95 -3 -11 13 -14 66 -14 238 l0 221 32 15 c18 8 33 23 33 32 0 16
-10 17 -86 13 -91 -4 -98 -8 -111 -55 -3 -14 -19 -52 -34 -85 -15 -33 -43 -95
-63 -138 -20 -43 -36 -83 -36 -88 0 -5 -9 -9 -19 -9 -14 0 -28 17 -47 58 -78
164 -112 241 -123 275 -7 20 -16 37 -19 37 -95 7 -174 5 -179 -3z m2076 -66
c28 -26 31 -35 31 -89 0 -72 -23 -108 -76 -118 -57 -10 -64 4 -64 121 0 56 3
105 7 108 17 18 72 6 102 -22z m-1083 -166 c12 -39 19 -74 15 -78 -5 -5 -30
-7 -57 -5 -56 3 -58 10 -30 88 9 25 19 51 21 58 10 28 29 4 51 -63z m512 3
c12 -40 18 -76 13 -81 -4 -4 -30 -7 -57 -5 -56 3 -56 2 -24 96 12 34 27 62 34
62 7 0 22 -32 34 -72z"/>
<path d="M6125 4800 c-5 -9 7 -24 30 -36 19 -11 20 -23 23 -243 l2 -232 -36
-15 c-19 -8 -34 -20 -31 -27 6 -18 259 -17 265 1 2 7 -10 17 -27 23 -17 6 -36
19 -41 29 -12 23 -13 170 -1 188 5 9 26 12 67 10 56 -3 60 -5 74 -35 9 -19 21
-32 30 -30 12 2 15 20 15 91 0 96 -14 122 -37 69 -17 -39 -25 -43 -90 -43 -69
0 -70 3 -66 125 l3 80 67 3 c80 3 102 -6 126 -55 9 -20 22 -36 27 -37 13 -1
19 114 7 126 -10 10 -402 17 -407 8z"/>
<path d="M1800 3991 c0 -6 5 -13 10 -16 6 -3 10 1 10 9 0 9 -4 16 -10 16 -5 0
-10 -4 -10 -9z"/>
<path d="M7257 3463 c-4 -3 -7 -53 -7 -110 0 -94 2 -103 19 -103 10 0 24 7 31
15 7 8 25 15 39 15 71 0 104 -118 47 -167 -42 -36 -88 -31 -123 12 -36 45 -47
44 -40 -1 9 -55 32 -74 87 -74 87 0 170 80 170 163 0 76 -60 120 -155 114 -26
-2 -30 2 -33 26 -5 46 13 58 82 57 92 -2 96 -2 96 18 0 34 -21 42 -115 42 -51
0 -95 -3 -98 -7z"/>
<path d="M2107 1774 c-9 -10 -8 -757 1 -772 7 -10 507 -12 2468 -10 l2459 3 0
390 0 390 -2461 3 c-1353 1 -2463 -1 -2467 -4z m1207 -140 c45 -7 47 -8 44
-38 -2 -25 -7 -30 -23 -27 -11 2 -48 4 -82 5 -67 1 -97 -14 -137 -68 -18 -23
-21 -42 -21 -113 1 -85 1 -85 37 -119 48 -44 109 -60 166 -45 50 13 62 9 62
-24 0 -31 -7 -35 -83 -42 -108 -10 -199 35 -244 120 -26 49 -24 180 4 232 52
98 143 137 277 119z m356 -4 c85 -24 148 -138 137 -252 -11 -120 -81 -202
-184 -215 -64 -7 -104 7 -156 56 -53 50 -69 92 -70 181 0 61 4 84 25 125 49
95 142 135 248 105z m280 -200 l5 -205 80 0 c115 -1 117 -2 113 -27 -3 -22 -7
-23 -135 -26 l-133 -3 0 229 c0 126 3 232 7 236 4 4 19 6 33 4 l25 -3 5 -205z
m318 5 c2 -144 6 -201 15 -207 6 -4 49 -8 95 -8 81 0 82 0 82 -25 l0 -25 -129
0 c-101 0 -130 3 -134 14 -3 7 -6 107 -7 221 -1 223 2 238 49 233 l26 -3 3
-200z m496 199 c19 -7 21 -37 4 -52 -8 -5 -46 -8 -90 -5 -75 4 -78 3 -83 -20
-4 -13 -5 -43 -3 -68 l3 -44 77 -3 c79 -3 106 -16 95 -46 -5 -11 -27 -16 -89
-18 l-83 -3 0 -75 0 -75 100 -5 c99 -5 102 -6 97 -40 -1 -6 -55 -10 -137 -10
l-135 0 0 229 c0 174 3 231 13 234 18 8 212 8 231 1z m360 0 c42 -6 46 -9 46
-35 0 -37 -12 -42 -60 -28 -83 25 -181 -19 -209 -94 -18 -47 -13 -133 10 -178
28 -55 107 -86 182 -72 26 5 27 8 27 64 l0 59 -40 0 c-28 0 -42 5 -49 18 -16
31 6 42 86 42 l73 0 0 -110 c0 -110 0 -111 -26 -121 -92 -35 -221 -15 -285 43
-54 49 -62 72 -62 169 0 75 3 92 26 131 54 93 148 130 281 112z m390 0 c9 -3
16 -17 16 -30 0 -26 4 -25 -105 -28 l-70 -1 -3 -67 -3 -67 83 -3 c81 -3 83 -4
83 -28 0 -24 -3 -25 -80 -30 l-80 -5 -3 -69 c-2 -43 1 -72 8 -76 6 -4 44 -5
83 -3 79 5 116 -10 104 -41 -5 -14 -25 -16 -136 -16 l-129 0 -6 48 c-9 81 -5
396 6 410 11 13 201 18 232 6z"/>
<path d="M3536 1558 c-36 -27 -68 -100 -68 -158 0 -67 37 -139 85 -163 33 -17
44 -18 76 -9 52 16 79 49 97 120 14 54 14 65 0 111 -18 62 -36 89 -71 107 -39
20 -85 17 -119 -8z"/>
</g>
</svg>
